name Walk10.mot
datacolumns 19
datarows 20
range 1.17000000 1.26500000
endheader

                time	   L_ground_force_vx	   L_ground_force_vy	   L_ground_force_vz	   L_ground_force_px	   L_ground_force_py	   L_ground_force_pz	   R_ground_force_vx	   R_ground_force_vy	   R_ground_force_vz	   R_ground_force_px	   R_ground_force_py	   R_ground_force_pz	   L_ground_torque_x	   L_ground_torque_y	   L_ground_torque_z	   R_ground_torque_x	   R_ground_torque_y	   R_ground_torque_z	
          1.17000000	         19.28325759	        735.12022333	        -22.44743362	         -0.23891949	          0.00000000	          0.19956441	          0.02127840	          0.31025500	         -0.03750950	          0.00029650	          0.00000000	          0.00012415	          0.00000000	          1.71611529	          0.00000000	          0.00000000	          0.00102003	          0.00000000	
          1.17500000	         22.84122577	        742.31764976	        -23.16489948	         -0.23821091	          0.00000000	          0.19975473	          0.01899282	          0.37743909	         -0.04309154	          0.00033480	          0.00000000	          0.00013896	          0.00000000	          1.74349484	          0.00000000	          0.00000000	          0.00210542	          0.00000000	
          1.18000000	         26.57865185	        749.74679541	        -23.87906986	         -0.23750364	          0.00000000	          0.19993138	          0.01308639	          0.43565575	         -0.04648166	          0.00035323	          0.00000000	          0.00014493	          0.00000000	          1.77692771	          0.00000000	          0.00000000	          0.00353829	          0.00000000	
          1.18500000	         30.49021366	        757.42570161	        -24.57779041	         -0.23679331	          0.00000000	          0.20008958	          0.00226211	          0.47270904	         -0.04603565	          0.00033841	          0.00000000	          0.00013636	          0.00000000	          1.81813372	          0.00000000	          0.00000000	          0.00533631	          0.00000000	
          1.19000000	         34.56878749	        765.36199719	        -25.25228316	         -0.23607878	          0.00000000	          0.20022594	         -0.01489605	          0.47219089	         -0.03966266	          0.00027357	          0.00000000	          0.00010617	          0.00000000	          1.86779208	          0.00000000	          0.00000000	          0.00748198	          0.00000000	
          1.19500000	         38.80499608	        773.55241347	        -25.89581888	         -0.23536123	          0.00000000	          0.20033881	         -0.03981502	          0.41314850	         -0.02483323	          0.00013872	          0.00000000	          0.00004601	          0.00000000	          1.92576679	          0.00000000	          0.00000000	          0.00990516	          0.00000000	
          1.20000000	         43.18515228	        781.97907852	        -26.50254979	         -0.23464282	          0.00000000	          0.20042707	         -0.07376286	          0.27012619	          0.00135412	         -0.00008867	          0.00000000	         -0.00005347	          0.00000000	          1.99113827	          0.00000000	          0.00000000	          0.01246224	          0.00000000	
          1.20500000	         47.69073137	        790.60473072	        -27.06541541	         -0.23392427	          0.00000000	          0.20049017	         -0.11760339	          0.01378596	          0.04202313	         -0.00043232	          0.00000000	         -0.00020202	          0.00000000	          2.06296272	          0.00000000	          0.00000000	          0.01491275	          0.00000000	
          1.21000000	         52.29925318	        799.37080775	        -27.57468367	         -0.23320531	          0.00000000	          0.20052727	         -0.17146363	         -0.38764600	          0.10025893	         -0.00091489	          0.00000000	         -0.00040874	          0.00000000	          2.14075226	          0.00000000	          0.00000000	          0.01689487	          0.00000000	
          1.21500000	         56.98505277	        808.19708506	        -28.01749375	         -0.23248525	          0.00000000	          0.20053637	         -0.23430591	         -0.96582321	          0.17870592	         -0.00155457	          0.00000000	         -0.00068068	          0.00000000	          2.22448488	          0.00000000	          0.00000000	          0.01790213	          0.00000000	
          1.22000000	         61.71991751	        816.98038382	        -28.37917897	         -0.23176334	          0.00000000	          0.20051434	         -0.30340439	         -1.74830789	          0.27899511	         -0.00236035	          0.00000000	         -0.00102081	          0.00000000	          2.31405084	          0.00000000	          0.00000000	          0.01726500	          0.00000000	
          1.22500000	         66.47458189	        825.59455202	        -28.64635158	         -0.23103913	          0.00000000	          0.20045729	         -0.37373688	         -2.75288318	          0.40097609	         -0.00332577	          0.00000000	         -0.00142529	          0.00000000	          2.40867420	          0.00000000	          0.00000000	          0.01414220	          0.00000000	
          1.23000000	         71.22067231	        833.89395717	        -28.80881712	         -0.23031212	          0.00000000	          0.20036153	         -0.43731969	         -3.97988970	          0.54173916	         -0.00442106	          0.00000000	         -0.00188026	          0.00000000	          2.50726740	          0.00000000	          0.00000000	          0.00752845	          0.00000000	
          1.23500000	         75.93404337	        841.72087789	        -28.85972909	         -0.22958091	          0.00000000	          0.20022512	         -0.48253562	         -5.40242662	          0.69443057	         -0.00558380	          0.00000000	         -0.00235783	          0.00000000	          2.60820702	          0.00000000	          0.00000000	         -0.00371336	          0.00000000	
          1.24000000	         80.59656960	        848.91586150	        -28.79429078	         -0.22884276	          0.00000000	          0.20004777	         -0.49353425	         -6.95443093	          0.84689168	         -0.00670831	          0.00000000	         -0.00281177	          0.00000000	          2.70989357	          0.00000000	          0.00000000	         -0.02078566	          0.00000000	
          1.24500000	         85.19652251	        855.32597401	        -28.60957854	         -0.22809487	          0.00000000	          0.19983035	         -0.44981865	         -8.51691834	          0.98019091	         -0.00763452	          0.00000000	         -0.00317286	          0.00000000	          2.81100423	          0.00000000	          0.00000000	         -0.04484441	          0.00000000	
          1.25000000	         89.72846723	        860.80947971	        -28.30622683	         -0.22733557	          0.00000000	          0.19957360	         -0.32617415	         -9.90305431	          1.06716997	         -0.00813729	          0.00000000	         -0.00334463	          0.00000000	          2.91046451	          0.00000000	          0.00000000	         -0.07683055	          0.00000000	
          1.25500000	         94.19213699	        865.23874676	        -27.88964337	         -0.22656515	          0.00000000	          0.19927732	         -0.09313901	        -10.84324195	          1.07119131	         -0.00791775	          0.00000000	         -0.00320000	          0.00000000	          3.00715660	          0.00000000	          0.00000000	         -0.11723372	          0.00000000	
          1.26000000	         98.59128719	        868.50080963	        -27.36968460	         -0.22578563	          0.00000000	          0.19894298	          0.28173792	        -10.97207527	          0.94535416	         -0.00659891	          0.00000000	         -0.00257982	          0.00000000	          3.09905467	          0.00000000	          0.00000000	         -0.16577940	          0.00000000	
          1.26500000	        102.93270093	        870.49266829	        -26.75859095	         -0.22500023	          0.00000000	          0.19857469	          0.83156720	         -9.81981035	          0.63253753	         -0.00372850	          0.00000000	         -0.00129456	          0.00000000	          3.18345805	          0.00000000	          0.00000000	         -0.22103529	          0.00000000	
